<?xml version="1.0" encoding="utf-8"?>
<!-- Generator: Adobe Illustrator 15.0.0, SVG Export Plug-In . SVG Version: 6.00 Build 0)  -->
<!DOCTYPE svg PUBLIC "-//W3C//DTD SVG 1.1//EN" "http://www.w3.org/Graphics/SVG/1.1/DTD/svg11.dtd">
<svg version="1.1" xmlns="http://www.w3.org/2000/svg" xmlns:xlink="http://www.w3.org/1999/xlink" x="0px" y="0px" width="98px"
	 height="60px" viewBox="0 0 98 60" style="enable-background:new 0 0 98 60;" xml:space="preserve">
<style type="text/css">
<![CDATA[
	.st0{display:inline;fill:#FFFFFF;stroke:#FFFFFF;stroke-width:2.5;}
	.st1{font-size:11.8154;}
	.st2{fill:#FFFFFF;stroke:#FFFFFF;stroke-width:2.5;}
	.st3{fill:#FFFFFF;}
	.st4{display:inline;}
	.st5{letter-spacing:5;}
	.st6{fill:#0096FF;}
	.st7{font-family:'Helvetica';}
	.st8{display:none;}
]]>
</style>
<g id="Layer_1">
	<rect class="st6" width="98" height="60"/>
</g>
<g id="Layer_2" class="st8">
	<path class="st0" d="M95.2,21.7l-11.1-6.4v3.5h-2.2H70v-4.7h12V8.3h-17C61.3,4.4,56.2,2,50.4,2c-8.7,0-16,5.6-18.7,13.3l-2.9-7.1
		h-5.2l-4.1,10.7h-5.7v-3.5L2.8,21.7l11.1,6.4v-3.5h3.5l-4,10.6h7l3-10.6h7.5c1.4,9.5,9.6,16.9,19.5,16.9c5.6,0,10.6-2.3,14.2-6
		h17.3v-5.8H70v-5.1h12h2.2v3.5L95.2,21.7z M25.1,18.8l1.2-4.2l1.1,4.2H25.1z M50.4,35.9c-7.8,0-14.2-6.4-14.2-14.2
		c0-7.8,6.4-14.2,14.2-14.2c6.8,0,12.6,4.8,13.9,11.3h-6.1c-1.2-3.2-4.2-5.4-7.8-5.4c-4.6,0-8.3,3.7-8.3,8.3s3.7,8.3,8.3,8.3
		c3.6,0,6.6-2.2,7.8-5.4h6.1C63,31.1,57.3,35.9,50.4,35.9z"/>
	<g class="st4">
		<g>
			<g>
				<circle class="st3" cx="50.4" cy="21.7" r="14.2"/>
				<polygon class="st6" points="34.7,18.8 13.9,18.8 13.9,15.3 2.8,21.7 13.9,28.1 13.9,24.6 34.7,24.6 				"/>
				<path class="st6" d="M95.2,21.7l-11.1-6.4v3.5H58.2c-1.2-3.2-4.2-5.4-7.8-5.4c-4.6,0-8.3,3.7-8.3,8.3s3.7,8.3,8.3,8.3
					c3.6,0,6.6-2.2,7.8-5.4h25.9v3.5L95.2,21.7z"/>
				<path d="M81.9,14.1V8.3h-17C61.3,4.4,56.2,2,50.4,2c-8.7,0-16,5.6-18.7,13.3l-2.9-7.1h-5.2l-10.3,27h7l3-10.6h7.5
					c1.4,9.5,9.6,16.9,19.5,16.9c5.6,0,10.6-2.3,14.2-6h17.3v-5.8H70v-5.1h12v-5.8H70v-4.7H81.9z M25.1,18.8l1.2-4.2l1.1,4.2H25.1z
					 M50.4,35.9c-7.8,0-14.2-6.4-14.2-14.2c0-7.8,6.4-14.2,14.2-14.2c7.8,0,14.2,6.4,14.2,14.2C64.6,29.5,58.2,35.9,50.4,35.9z"/>
			</g>
		</g>
		<text transform="matrix(1 0 0 1 12.0771 59)" class="st3 st7 st1 st5">COMICS</text>
	</g>
</g>
<g id="Layer_2_copy">
	<path class="st2" d="M95.2,21.7l-11.1-6.4v3.5h-2.2H70v-4.7h12V8.3h-17C61.3,4.4,56.2,2,50.4,2c-8.7,0-16,5.6-18.7,13.3l-2.9-7.1
		h-5.2l-4.1,10.7h-5.7v-3.5L2.8,21.7l11.1,6.4v-3.5h3.5l-4,10.6h7l3-10.6h7.5c1.4,9.5,9.6,16.9,19.5,16.9c5.6,0,10.6-2.3,14.2-6
		h17.3v-5.8H70v-5.1h12h2.2v3.5L95.2,21.7z M25.1,18.8l1.2-4.2l1.1,4.2H25.1z M50.4,35.9c-7.8,0-14.2-6.4-14.2-14.2
		c0-7.8,6.4-14.2,14.2-14.2c6.8,0,12.6,4.8,13.9,11.3h-6.1c-1.2-3.2-4.2-5.4-7.8-5.4c-4.6,0-8.3,3.7-8.3,8.3s3.7,8.3,8.3,8.3
		c3.6,0,6.6-2.2,7.8-5.4h6.1C63,31.1,57.3,35.9,50.4,35.9z"/>
	<g>
		<g>
			<g>
				<circle class="st3" cx="50.4" cy="21.7" r="14.2"/>
				<polygon class="st6" points="34.7,18.8 13.9,18.8 13.9,15.3 2.8,21.7 13.9,28.1 13.9,24.6 34.7,24.6 				"/>
				<path class="st6" d="M95.2,21.7l-11.1-6.4v3.5H58.2c-1.2-3.2-4.2-5.4-7.8-5.4c-4.6,0-8.3,3.7-8.3,8.3s3.7,8.3,8.3,8.3
					c3.6,0,6.6-2.2,7.8-5.4h25.9v3.5L95.2,21.7z"/>
				<path d="M81.9,14.1V8.3h-17C61.3,4.4,56.2,2,50.4,2c-8.7,0-16,5.6-18.7,13.3l-2.9-7.1h-5.2l-10.3,27h7l3-10.6h7.5
					c1.4,9.5,9.6,16.9,19.5,16.9c5.6,0,10.6-2.3,14.2-6h17.3v-5.8H70v-5.1h12v-5.8H70v-4.7H81.9z M25.1,18.8l1.2-4.2l1.1,4.2H25.1z
					 M50.4,35.9c-7.8,0-14.2-6.4-14.2-14.2c0-7.8,6.4-14.2,14.2-14.2c7.8,0,14.2,6.4,14.2,14.2C64.6,29.5,58.2,35.9,50.4,35.9z"/>
			</g>
		</g>
		<g>
			<path class="st3" d="M18.9,53.1c-0.3-1.5-1.6-1.8-2.4-1.8c-1.5,0-2.8,1.1-2.8,3.4c0,2,0.7,3.5,2.8,3.5c0.7,0,2-0.4,2.4-2.3h1.1
				c-0.5,3.2-3.1,3.3-3.7,3.3c-1.9,0-3.8-1.3-3.8-4.5c0-2.6,1.5-4.4,4-4.4c2.2,0,3.3,1.4,3.5,2.8H18.9z"/>
			<path class="st3" d="M30.5,59.2c-3.2,0-4.1-2.6-4.1-4.5c0-1.8,1-4.5,4.1-4.5s4.1,2.6,4.1,4.5C34.7,56.6,33.7,59.2,30.5,59.2z
				 M30.5,51.3c-1.8,0-3,1.5-3,3.4s1.1,3.4,3,3.4s3-1.5,3-3.4S32.4,51.3,30.5,51.3z"/>
			<path class="st3" d="M48.3,59v-5c0-0.2,0-1.3,0-2.1h0L45.9,59h-1.1l-2.4-7.1h0c0,0.8,0,1.9,0,2.1v5h-1.1v-8.5h1.6l2.4,7.2h0
				l2.4-7.2h1.6V59H48.3z"/>
			<path class="st3" d="M57.8,59h-1.1v-8.5h1.1V59z"/>
			<path class="st3" d="M71,53.1c-0.3-1.5-1.6-1.8-2.4-1.8c-1.5,0-2.8,1.1-2.8,3.4c0,2,0.7,3.5,2.8,3.5c0.7,0,2-0.4,2.4-2.3h1.1
				c-0.5,3.2-3.1,3.3-3.7,3.3c-1.9,0-3.8-1.3-3.8-4.5c0-2.6,1.5-4.4,4-4.4c2.2,0,3.3,1.4,3.5,2.8H71z"/>
			<path class="st3" d="M84.1,53c-0.1-1.3-1.1-1.7-2.1-1.7c-0.7,0-1.9,0.2-1.9,1.5c0,0.7,0.5,1,1,1.1l2.4,0.6
				c1.1,0.3,1.9,0.9,1.9,2.3c0,2-1.9,2.6-3.3,2.6c-1.6,0-2.2-0.5-2.6-0.8c-0.7-0.6-0.9-1.4-0.9-2.1h1.1c0,1.5,1.3,2,2.3,2
				c0.8,0,2.2-0.2,2.2-1.4c0-0.9-0.4-1.2-1.8-1.5l-1.7-0.4c-0.6-0.1-1.8-0.5-1.8-2c0-1.3,0.9-2.6,2.9-2.6c3,0,3.3,1.8,3.3,2.7H84.1z
				"/>
		</g>
	</g>
</g>
</svg>
